<svg width="744" height="199" viewBox="0 0 744 199" fill="none" xmlns="http://www.w3.org/2000/svg">
<path d="M22.946 21.6548L8.35449 30.1526V80.9858V131.836L8.81528 133.542C9.44672 135.846 11.0339 138.986 12.4674 140.76C15.1468 144.105 18.7477 146.374 23.2702 147.586C24.6867 147.944 25.284 148.013 27.6391 148.03C30.8134 148.047 32.3493 147.791 34.9093 146.784C36.0527 146.34 41.1384 143.474 51.7876 137.279C60.1841 132.416 67.0958 128.406 67.147 128.372C67.2153 128.355 67.3177 129.123 67.3689 130.078C67.7955 138.013 73.5468 145.095 81.3801 147.347C85.6125 148.576 90.4251 148.303 94.4697 146.613C95.1694 146.323 102.61 142.091 111.007 137.211L126.281 128.338L126.4 129.993C126.776 134.976 129.284 139.958 133.056 143.183C139.097 148.32 147.682 149.412 154.576 145.931C155.515 145.453 287.674 68.751 287.965 68.5121C287.999 68.478 284.688 62.7104 280.609 55.6972C275.489 46.9093 273.1 42.9334 272.912 42.9505C272.776 42.9676 246.426 58.2738 214.359 76.9587C182.309 95.6436 156.027 110.933 155.976 110.933C155.942 110.933 155.873 100.968 155.856 88.784L155.805 66.618L141.094 75.167L126.366 83.716L126.332 88.8181L126.281 93.9373L111.775 102.367C103.805 107.008 97.1662 110.83 97.0638 110.882C96.8931 110.95 96.8419 106.411 96.8078 88.784L96.7566 66.601L82.0457 75.167L67.3177 83.716L67.2835 88.8181L67.2323 93.9373L52.7262 102.367C44.7564 107.008 38.1177 110.83 38.0153 110.882C37.8446 110.95 37.7934 101.121 37.7934 62.062C37.7934 35.1694 37.7422 13.157 37.674 13.1741C37.5886 13.1741 30.967 16.9964 22.946 21.6548Z" fill="white"/>
<path d="M78.8376 13.4472C75.4073 14.1809 72.0112 16.3821 70.0144 19.1977C64.9629 26.3133 67.0108 36.2103 74.4687 40.6298C80.5613 44.2474 88.7871 42.8823 93.2755 37.4901C94.5042 36.0226 95.8695 33.3607 96.3474 31.5007C96.7569 29.8626 96.8423 26.5863 96.518 25.0164C95.2381 19.1123 90.7668 14.5904 85.0326 13.4301C83.3942 13.0888 80.4418 13.1059 78.8376 13.4472Z" fill="white"/>
<path d="M647.683 38.3773C647.956 38.8381 651.728 45.3565 656.096 52.8816L664.032 66.5498L683.982 66.6009L703.933 66.6521L665.978 88.7839C645.089 100.968 627.954 110.933 627.886 110.933C627.818 110.933 627.75 100.968 627.733 88.7839L627.681 66.6521L612.971 75.1841L598.26 83.716L598.243 88.7839V93.869L597.611 94.2614C596.416 95.0122 568.906 110.933 568.821 110.933C568.769 110.933 568.701 100.968 568.684 88.7839L568.633 66.618L553.922 75.167L539.211 83.716L539.194 88.7669C539.194 92.6062 539.143 93.869 538.989 94.0055C538.682 94.2444 509.875 110.933 509.755 110.933C509.721 110.933 509.653 100.968 509.636 88.7669L509.584 66.618L494.874 75.167L480.163 83.716L480.146 88.7669C480.146 92.6062 480.094 93.869 479.941 94.0055C479.651 94.2273 450.297 111.274 450.195 111.274C450.143 111.274 450.109 103.544 450.109 94.0737V76.8904L457.448 72.7269C461.492 70.4403 464.786 68.478 464.752 68.3585C464.667 68.0172 450.024 42.8651 449.904 42.8481C449.836 42.8481 423.537 58.1543 391.453 76.8734L333.122 110.899L333.07 88.7157C333.053 75.3035 332.968 66.5668 332.883 66.6009C332.797 66.6351 326.107 70.4915 318.035 75.1841L303.341 83.716V106.087C303.341 120.318 303.41 129.106 303.512 130.198C304.382 138.627 309.861 144.941 318.359 147.33C319.486 147.654 320.083 147.688 323.309 147.688C327.234 147.688 328.172 147.535 330.613 146.562C331.142 146.34 351.689 134.43 376.247 120.096C400.823 105.762 420.96 94.0396 421.012 94.0396C421.063 94.0396 421.097 102.196 421.097 112.178C421.097 128.116 421.131 130.522 421.37 131.938C422.36 137.672 425.807 142.569 430.927 145.487C436.474 148.661 443.317 148.951 449 146.272C449.751 145.914 456.987 141.767 465.093 137.075C473.183 132.365 479.872 128.509 479.958 128.509C480.026 128.509 480.146 129.225 480.197 130.078C480.675 137.228 485.248 143.576 492.041 146.511C496.99 148.661 503.031 148.61 507.861 146.357C508.526 146.05 515.711 141.938 523.835 137.211C531.941 132.484 538.716 128.594 538.887 128.543C539.16 128.474 539.194 128.594 539.194 129.584C539.194 131.119 539.604 133.303 540.235 135.095C543.819 145.351 555.202 150.692 565.51 146.938C567.165 146.34 566.995 146.443 585.068 135.965C592.133 131.853 597.987 128.509 598.072 128.509C598.174 128.509 598.243 128.816 598.243 129.174C598.243 130.317 598.584 132.416 599.028 133.935C601.707 143.149 610.82 149.002 620.599 147.774C622.527 147.535 624.507 147.023 625.855 146.409C626.76 145.999 732.894 84.3132 733.269 83.989C733.32 83.9378 727.33 73.4777 719.94 60.7651L706.509 37.6436L676.866 37.5924L647.222 37.5583L647.683 38.3773Z" fill="white"/>
<path d="M717.244 131.478C711.219 132.638 706.782 136.802 705.4 142.62C705.093 143.9 705.059 144.497 705.11 146.596C705.178 148.832 705.246 149.241 705.758 150.726C707.823 156.869 713.284 160.759 719.821 160.759C724.036 160.759 727.705 159.189 730.521 156.186C731.221 155.452 732.074 154.343 732.433 153.746C736.546 146.767 734.446 137.86 727.705 133.542C724.821 131.7 720.52 130.846 717.244 131.478Z" fill="white"/>
<path d="M683.317 131.665C678.504 132.706 674.323 136.324 672.667 140.897C671.933 142.911 671.746 144.361 671.831 146.869C671.899 148.763 672.002 149.31 672.48 150.726C675.364 159.377 685.023 163.353 693.215 159.275C695.706 158.046 697.993 155.862 699.41 153.388C700.144 152.125 700.912 149.685 701.151 147.961C701.782 143.44 700.11 138.679 696.782 135.488C694.717 133.525 692.652 132.382 690.023 131.751C688.351 131.358 684.955 131.307 683.317 131.665Z" fill="white"/>
<path d="M371.827 158.353C366.622 159.189 362.066 162.841 360.274 167.602C358.977 171.049 359.011 174.973 360.325 178.523C361.639 182.021 365.018 185.399 368.517 186.713C371.094 187.669 374.302 187.976 376.811 187.498C381.692 186.577 385.89 183.181 387.716 178.676C388.552 176.629 388.74 175.502 388.74 172.874C388.723 170.69 388.672 170.23 388.262 168.864C386.726 163.779 382.818 159.974 377.835 158.694C376.316 158.302 373.244 158.131 371.827 158.353Z" fill="white"/>
<path d="M700.639 158.729C699.188 158.95 696.697 159.786 695.553 160.452C693.301 161.732 691.167 163.899 689.836 166.22C689.188 167.346 688.403 169.854 688.181 171.509C687.549 176.065 689.239 180.826 692.635 184.068C694.461 185.792 695.946 186.662 698.42 187.464C700.195 188.044 703.523 188.232 705.486 187.891C711.391 186.85 716.067 182.277 717.295 176.338C717.5 175.349 717.551 174.427 717.5 172.704C717.415 170.724 717.33 170.178 716.886 168.779C715.299 163.967 711.391 160.298 706.527 159.053C704.905 158.643 702.192 158.49 700.639 158.729Z" fill="white"/>
<path d="M98.3778 161.766C95.3912 162.414 93.275 163.592 91.0394 165.861C87.9163 169.018 86.5851 172.533 86.824 177.055C87.0288 180.843 88.4283 184.034 91.0735 186.662C92.9337 188.522 94.9987 189.734 97.661 190.501C98.7532 190.809 99.4017 190.877 101.535 190.86C104.317 190.86 105.307 190.672 107.491 189.751C111.74 187.942 115.205 183.659 115.973 179.273C116.195 177.977 116.468 177.431 116.468 178.267C116.468 178.557 116.621 179.376 116.809 180.11C118.174 185.314 122.407 189.426 127.629 190.621C129.045 190.945 129.609 190.996 131.708 190.928C133.858 190.86 134.319 190.792 135.752 190.297C138.073 189.512 139.831 188.42 141.555 186.679C144.405 183.812 145.821 180.366 145.821 176.287C145.821 166.066 136.025 159.053 126.298 162.312C121.28 163.984 117.441 168.404 116.587 173.472C116.382 174.7 116.126 175.042 116.126 174.086C116.126 172.636 114.829 169.376 113.498 167.534C112.645 166.322 111.126 164.837 109.931 164.018C108.788 163.251 106.535 162.227 105.204 161.885C103.463 161.425 100.136 161.373 98.3778 161.766Z" fill="white"/>
</svg>
